<mxfile host="app.diagrams.net" modified="2024-03-23T20:55:15.825Z" agent="Mozilla/5.0 (Windows NT 10.0; Win64; x64) AppleWebKit/537.36 (KHTML, like Gecko) Chrome/123.0.0.0 Safari/537.36" etag="2oYamfwDEWobWBGFeYbi" version="24.0.8" type="device">
  <diagram name="PÃ¡gina-1" id="1SsKQiaBe1FHjmPb9n5k">
    <mxGraphModel dx="989" dy="532" grid="1" gridSize="10" guides="1" tooltips="1" connect="1" arrows="1" fold="1" page="1" pageScale="1" pageWidth="827" pageHeight="1169" math="0" shadow="0">
      <root>
        <mxCell id="0" />
        <mxCell id="1" parent="0" />
        <mxCell id="ISQ7DvIaNzTSfyhaP-Kg-9" style="edgeStyle=orthogonalEdgeStyle;rounded=0;orthogonalLoop=1;jettySize=auto;html=1;exitX=1;exitY=0.5;exitDx=0;exitDy=0;entryX=0;entryY=0.5;entryDx=0;entryDy=0;" parent="1" source="ISQ7DvIaNzTSfyhaP-Kg-10" target="ISQ7DvIaNzTSfyhaP-Kg-35" edge="1">
          <mxGeometry relative="1" as="geometry">
            <mxPoint x="240" y="180" as="targetPoint" />
          </mxGeometry>
        </mxCell>
        <mxCell id="ISQ7DvIaNzTSfyhaP-Kg-10" value="&lt;span style=&quot;font-size: 18px;&quot;&gt;Search&lt;/span&gt;&lt;div&gt;&lt;span style=&quot;font-size: 18px;&quot;&gt;Animal&lt;/span&gt;&lt;/div&gt;&lt;div&gt;&lt;span style=&quot;font-size: 18px;&quot;&gt;Condition&lt;/span&gt;&lt;/div&gt;" style="ellipse;whiteSpace=wrap;html=1;" parent="1" vertex="1">
          <mxGeometry x="70" y="130" width="100" height="100" as="geometry" />
        </mxCell>
        <mxCell id="ISQ7DvIaNzTSfyhaP-Kg-12" value="Access" style="text;html=1;align=center;verticalAlign=middle;resizable=0;points=[];autosize=1;strokeColor=none;fillColor=none;fontSize=16;" parent="1" vertex="1">
          <mxGeometry x="166" y="147" width="70" height="30" as="geometry" />
        </mxCell>
        <mxCell id="ISQ7DvIaNzTSfyhaP-Kg-35" value="Meat&lt;div&gt;Details&lt;/div&gt;" style="rounded=0;whiteSpace=wrap;html=1;fontSize=18;" parent="1" vertex="1">
          <mxGeometry x="235" y="150" width="120" height="60" as="geometry" />
        </mxCell>
        <mxCell id="ISQ7DvIaNzTSfyhaP-Kg-56" style="edgeStyle=orthogonalEdgeStyle;rounded=0;orthogonalLoop=1;jettySize=auto;html=1;exitX=0.5;exitY=0;exitDx=0;exitDy=0;entryX=1;entryY=0.25;entryDx=0;entryDy=0;" parent="1" source="ISQ7DvIaNzTSfyhaP-Kg-35" target="ISQ7DvIaNzTSfyhaP-Kg-35" edge="1">
          <mxGeometry relative="1" as="geometry" />
        </mxCell>
        <mxCell id="ISQ7DvIaNzTSfyhaP-Kg-57" value="Search product, Check more Details" style="text;html=1;align=center;verticalAlign=middle;resizable=0;points=[];autosize=1;strokeColor=none;fillColor=none;fontSize=16;" parent="1" vertex="1">
          <mxGeometry x="195" y="90" width="280" height="30" as="geometry" />
        </mxCell>
        <mxCell id="ISQ7DvIaNzTSfyhaP-Kg-63" style="edgeStyle=orthogonalEdgeStyle;rounded=0;orthogonalLoop=1;jettySize=auto;html=1;exitX=1;exitY=0.5;exitDx=0;exitDy=0;entryX=0;entryY=0.5;entryDx=0;entryDy=0;" parent="1" source="ISQ7DvIaNzTSfyhaP-Kg-58" target="ISQ7DvIaNzTSfyhaP-Kg-66" edge="1">
          <mxGeometry relative="1" as="geometry">
            <mxPoint x="240" y="340" as="targetPoint" />
          </mxGeometry>
        </mxCell>
        <mxCell id="ISQ7DvIaNzTSfyhaP-Kg-58" value="&lt;span style=&quot;font-size: 18px;&quot;&gt;Check&lt;/span&gt;&lt;div&gt;&lt;span style=&quot;font-size: 18px;&quot;&gt;Saved&lt;/span&gt;&lt;/div&gt;&lt;div&gt;&lt;span style=&quot;font-size: 18px;&quot;&gt;Products&lt;/span&gt;&lt;/div&gt;" style="ellipse;whiteSpace=wrap;html=1;" parent="1" vertex="1">
          <mxGeometry x="70" y="290" width="100" height="100" as="geometry" />
        </mxCell>
        <mxCell id="ISQ7DvIaNzTSfyhaP-Kg-70" style="edgeStyle=orthogonalEdgeStyle;rounded=0;orthogonalLoop=1;jettySize=auto;html=1;exitX=1;exitY=0.5;exitDx=0;exitDy=0;" parent="1" source="ISQ7DvIaNzTSfyhaP-Kg-59" edge="1">
          <mxGeometry relative="1" as="geometry">
            <mxPoint x="267.5" y="545" as="targetPoint" />
          </mxGeometry>
        </mxCell>
        <mxCell id="ISQ7DvIaNzTSfyhaP-Kg-59" value="&lt;span style=&quot;font-size: 18px;&quot;&gt;Check&lt;/span&gt;&lt;div&gt;&lt;span style=&quot;font-size: 18px;&quot;&gt;AnimalRights&lt;br&gt;&lt;/span&gt;&lt;div&gt;&lt;span style=&quot;font-size: 18px;&quot;&gt;News&lt;/span&gt;&lt;/div&gt;&lt;/div&gt;" style="ellipse;whiteSpace=wrap;html=1;" parent="1" vertex="1">
          <mxGeometry x="70" y="490" width="115" height="110" as="geometry" />
        </mxCell>
        <mxCell id="ISQ7DvIaNzTSfyhaP-Kg-61" value="Observe animal health state,&amp;nbsp;&lt;div&gt;life and death conditions&lt;/div&gt;" style="text;html=1;align=center;verticalAlign=middle;resizable=0;points=[];autosize=1;strokeColor=none;fillColor=none;fontSize=16;" parent="1" vertex="1">
          <mxGeometry x="365" y="190" width="230" height="50" as="geometry" />
        </mxCell>
        <mxCell id="ISQ7DvIaNzTSfyhaP-Kg-62" style="edgeStyle=orthogonalEdgeStyle;rounded=0;orthogonalLoop=1;jettySize=auto;html=1;exitX=1;exitY=0.5;exitDx=0;exitDy=0;entryX=0.75;entryY=1;entryDx=0;entryDy=0;" parent="1" source="ISQ7DvIaNzTSfyhaP-Kg-35" target="ISQ7DvIaNzTSfyhaP-Kg-35" edge="1">
          <mxGeometry relative="1" as="geometry" />
        </mxCell>
        <mxCell id="ISQ7DvIaNzTSfyhaP-Kg-65" value="Access" style="text;html=1;align=center;verticalAlign=middle;resizable=0;points=[];autosize=1;strokeColor=none;fillColor=none;fontSize=16;" parent="1" vertex="1">
          <mxGeometry x="170" y="300" width="70" height="30" as="geometry" />
        </mxCell>
        <mxCell id="ISQ7DvIaNzTSfyhaP-Kg-66" value="Saved&lt;div&gt;Products&lt;/div&gt;" style="rounded=0;whiteSpace=wrap;html=1;fontSize=18;" parent="1" vertex="1">
          <mxGeometry x="245" y="310" width="120" height="60" as="geometry" />
        </mxCell>
        <mxCell id="ISQ7DvIaNzTSfyhaP-Kg-77" style="edgeStyle=orthogonalEdgeStyle;rounded=0;orthogonalLoop=1;jettySize=auto;html=1;exitX=1;exitY=0.5;exitDx=0;exitDy=0;entryX=0;entryY=0.5;entryDx=0;entryDy=0;" parent="1" source="ISQ7DvIaNzTSfyhaP-Kg-71" target="ISQ7DvIaNzTSfyhaP-Kg-76" edge="1">
          <mxGeometry relative="1" as="geometry" />
        </mxCell>
        <mxCell id="ISQ7DvIaNzTSfyhaP-Kg-71" value="News&lt;div&gt;Page&lt;/div&gt;" style="rounded=0;whiteSpace=wrap;html=1;fontSize=18;" parent="1" vertex="1">
          <mxGeometry x="267.5" y="515" width="120" height="60" as="geometry" />
        </mxCell>
        <mxCell id="ISQ7DvIaNzTSfyhaP-Kg-72" value="Access" style="text;html=1;align=center;verticalAlign=middle;resizable=0;points=[];autosize=1;strokeColor=none;fillColor=none;fontSize=16;" parent="1" vertex="1">
          <mxGeometry x="192.5" y="515" width="70" height="30" as="geometry" />
        </mxCell>
        <mxCell id="ISQ7DvIaNzTSfyhaP-Kg-76" value="New" style="rounded=0;whiteSpace=wrap;html=1;fontSize=18;" parent="1" vertex="1">
          <mxGeometry x="500" y="515" width="120" height="60" as="geometry" />
        </mxCell>
        <mxCell id="ISQ7DvIaNzTSfyhaP-Kg-78" value="Access" style="text;html=1;align=center;verticalAlign=middle;resizable=0;points=[];autosize=1;strokeColor=none;fillColor=none;fontSize=16;" parent="1" vertex="1">
          <mxGeometry x="414" y="515" width="70" height="30" as="geometry" />
        </mxCell>
        <mxCell id="PoDEteR3UzbUMA_KETCq-1" style="edgeStyle=orthogonalEdgeStyle;rounded=0;orthogonalLoop=1;jettySize=auto;html=1;exitX=0.25;exitY=0;exitDx=0;exitDy=0;entryX=1;entryY=0.25;entryDx=0;entryDy=0;" edge="1" parent="1" source="ISQ7DvIaNzTSfyhaP-Kg-71" target="ISQ7DvIaNzTSfyhaP-Kg-71">
          <mxGeometry relative="1" as="geometry" />
        </mxCell>
        <mxCell id="PoDEteR3UzbUMA_KETCq-2" value="Search new" style="text;html=1;align=center;verticalAlign=middle;resizable=0;points=[];autosize=1;strokeColor=none;fillColor=none;fontSize=16;" vertex="1" parent="1">
          <mxGeometry x="297.5" y="460" width="110" height="30" as="geometry" />
        </mxCell>
      </root>
    </mxGraphModel>
  </diagram>
</mxfile>
